<svg width="32" height="32" viewBox="0 0 32 32" fill="none" xmlns="http://www.w3.org/2000/svg">
<path d="M4.55234 13.3333H20C20.7364 13.3333 21.3333 12.7364 21.3333 12C21.3333 11.2636 20.7364 10.6667 20 10.6667H4.55234L7.60953 7.6095C8.13021 7.08881 8.13021 6.24456 7.60953 5.72387C7.08884 5.20319 6.24459 5.20319 5.7239 5.72387L0.390527 11.0572C0.359464 11.0882 0.330089 11.1209 0.302214 11.1549C0.289589 11.1703 0.278589 11.1866 0.266777 11.2024C0.252527 11.2214 0.237839 11.2399 0.224589 11.2597C0.211902 11.2787 0.200902 11.2984 0.189277 11.3178C0.178589 11.3357 0.167339 11.3532 0.157464 11.3716C0.146839 11.3914 0.137839 11.4119 0.128339 11.4321C0.119277 11.4513 0.109714 11.4702 0.101527 11.4899C0.0934018 11.5096 0.0867769 11.5297 0.0796519 11.5497C0.0720894 11.5707 0.0640269 11.5915 0.0575269 11.613C0.0514644 11.633 0.0470269 11.6533 0.0419644 11.6736C0.0364019 11.6955 0.0302769 11.7172 0.0258394 11.7396C0.0212144 11.763 0.0184644 11.7866 0.0150894 11.8102C0.0123394 11.8296 0.00858936 11.8488 0.00665186 11.8685C-0.00197314 11.956 -0.00197314 12.0442 0.00665186 12.1317C0.00858936 12.1514 0.0122769 12.1705 0.0150894 12.19C0.0184644 12.2136 0.0212144 12.2372 0.0259019 12.2606C0.0303394 12.283 0.0364644 12.3046 0.0420269 12.3266C0.0470894 12.3468 0.0515269 12.3671 0.0575894 12.3871C0.0640894 12.4086 0.0721518 12.4294 0.0797144 12.4504C0.0869019 12.4704 0.0934644 12.4906 0.101589 12.5102C0.109714 12.5299 0.119339 12.5487 0.128402 12.5679C0.137964 12.5882 0.146964 12.6086 0.157589 12.6285C0.167464 12.6469 0.178652 12.6643 0.189339 12.6822C0.200964 12.7017 0.211964 12.7214 0.224652 12.7404C0.237839 12.7601 0.252527 12.7786 0.266714 12.7976C0.278589 12.8135 0.289589 12.8297 0.302277 12.8452C0.329964 12.8789 0.359152 12.9114 0.389964 12.9422C0.390214 12.9424 0.390339 12.9427 0.390589 12.9429L5.7239 18.2762C6.24459 18.7969 7.08884 18.7969 7.60953 18.2762C8.13021 17.7555 8.13021 16.9112 7.60953 16.3906L4.55234 13.3333Z" fill="#E9A043"/>
<path d="M31.6977 20.8451C31.7105 20.8296 31.7215 20.8133 31.7334 20.7974C31.7475 20.7785 31.7622 20.76 31.7754 20.7403C31.7881 20.7213 31.7991 20.7016 31.8107 20.6821C31.8214 20.6643 31.8325 20.6468 31.8424 20.6285C31.853 20.6086 31.862 20.5881 31.8716 20.5678C31.8807 20.5487 31.8902 20.5299 31.8984 20.5103C31.9065 20.4906 31.9131 20.4704 31.9202 20.4504C31.9278 20.4294 31.9359 20.4086 31.9424 20.3871C31.9484 20.3671 31.9529 20.3468 31.9579 20.3266C31.9635 20.3046 31.9696 20.2829 31.974 20.2606C31.9787 20.2372 31.9814 20.2136 31.9849 20.19C31.9876 20.1706 31.9914 20.1514 31.9933 20.1317C32.0019 20.0442 32.0019 19.956 31.9933 19.8685C31.9914 19.8488 31.9877 19.8297 31.9849 19.8102C31.9815 19.7866 31.9787 19.7629 31.974 19.7396C31.9696 19.7172 31.9635 19.6956 31.9579 19.6736C31.9529 19.6534 31.9484 19.6331 31.9424 19.6131C31.9359 19.5916 31.9278 19.5708 31.9202 19.5498C31.913 19.5298 31.9065 19.5096 31.8984 19.4899C31.8902 19.4703 31.8807 19.4515 31.8716 19.4324C31.862 19.4121 31.853 19.3916 31.8424 19.3717C31.8325 19.3534 31.8214 19.3359 31.8107 19.3181C31.7991 19.2986 31.788 19.2789 31.7754 19.2599C31.7622 19.2402 31.7475 19.2217 31.7334 19.2028C31.7215 19.1869 31.7104 19.1706 31.6977 19.1551C31.6703 19.1216 31.6413 19.0894 31.6107 19.0588C31.6103 19.0583 31.6099 19.0578 31.6094 19.0574L26.2761 13.7241C25.7554 13.2034 24.9112 13.2034 24.3905 13.7241C23.8698 14.2448 23.8698 15.089 24.3905 15.6097L27.4477 18.6669H12C11.2636 18.6669 10.6667 19.2638 10.6667 20.0002C10.6667 20.7366 11.2636 21.3335 12 21.3335H27.4477L24.3905 24.3907C23.8698 24.9114 23.8698 25.7556 24.3905 26.2763C24.9112 26.797 25.7554 26.797 26.2761 26.2763L31.6094 20.943C31.6099 20.9425 31.6103 20.942 31.6107 20.9416C31.6413 20.9108 31.6703 20.8786 31.6977 20.8451Z" fill="#E9A043"/>
</svg>
