<svg width="24" height="24" viewBox="0 0 24 24" fill="none" xmlns="http://www.w3.org/2000/svg">
<g clip-path="url(#clip0)">
<g clip-path="url(#clip1)">
<path d="M4.38228 15.9121L13.2575 8.46487C13.6806 8.10987 13.7358 7.47913 13.3808 7.05606C13.0258 6.63299 12.395 6.57781 11.9719 6.93281L3.09673 14.38L3.37934 11.1497C3.42748 10.5995 3.02047 10.1145 2.4703 10.0663C1.92013 10.0182 1.43508 10.4252 1.38695 10.9754L0.893885 16.6107C0.891014 16.6435 0.889895 16.6765 0.890271 16.7095C0.89043 16.7244 0.891944 16.739 0.89278 16.7538C0.893753 16.7716 0.894263 16.7893 0.896202 16.8071C0.898042 16.8241 0.901214 16.8407 0.903906 16.8575C0.906383 16.8729 0.908355 16.8884 0.91157 16.9037C0.915017 16.9202 0.919699 16.9363 0.924004 16.9525C0.928047 16.9679 0.931652 16.9834 0.93644 16.9986C0.941263 17.0139 0.947158 17.0286 0.952707 17.0435C0.958516 17.0593 0.963887 17.0751 0.970517 17.0906C0.976676 17.105 0.983919 17.1188 0.990773 17.1329C0.998153 17.1482 1.00509 17.1636 1.01333 17.1786C1.02197 17.1943 1.03178 17.2092 1.0412 17.2243C1.04899 17.2368 1.05608 17.2497 1.06446 17.2619C1.10169 17.3163 1.1442 17.367 1.19134 17.4131C1.20195 17.4235 1.21329 17.4327 1.2243 17.4426C1.2376 17.4545 1.2506 17.4667 1.26456 17.4779C1.2779 17.4886 1.29184 17.4981 1.30561 17.508C1.31829 17.5172 1.33063 17.5267 1.34375 17.5353C1.35785 17.5445 1.37252 17.5526 1.38699 17.561C1.40076 17.5691 1.41423 17.5774 1.42839 17.5848C1.44255 17.5922 1.45715 17.5984 1.4716 17.6051C1.48686 17.6121 1.50188 17.6195 1.51757 17.6258C1.5321 17.6316 1.54694 17.6362 1.56169 17.6413C1.57777 17.6469 1.59358 17.6529 1.61003 17.6577C1.62713 17.6627 1.64449 17.6663 1.6618 17.6703C1.67627 17.6737 1.69043 17.6778 1.70516 17.6805C1.73734 17.6866 1.76975 17.6911 1.8023 17.694C1.80257 17.694 1.80276 17.6941 1.80299 17.6941L7.4383 18.1871C7.98847 18.2352 8.47352 17.8282 8.52165 17.2781C8.56979 16.7279 8.16278 16.2428 7.61261 16.1947L4.38228 15.9121Z" fill="#E9A043"/>
<path d="M23.5996 7.14127C23.5994 7.12622 23.5979 7.11155 23.5971 7.09664C23.5961 7.07898 23.5956 7.06127 23.5937 7.04363C23.5918 7.02657 23.5886 7.00992 23.5859 6.99311C23.5834 6.97776 23.5814 6.96235 23.5782 6.94709C23.5748 6.93055 23.5701 6.91441 23.5658 6.89813C23.5618 6.88277 23.5582 6.86738 23.5534 6.85216C23.5486 6.83693 23.5427 6.82217 23.5371 6.80725C23.5313 6.7915 23.526 6.77569 23.5193 6.76021C23.5132 6.74579 23.5059 6.73195 23.4991 6.71791C23.4917 6.70262 23.4848 6.68721 23.4766 6.67225C23.4679 6.65656 23.4581 6.64166 23.4487 6.62646C23.4409 6.61397 23.4339 6.60117 23.4255 6.58889C23.3882 6.53446 23.3457 6.4838 23.2986 6.43768C23.288 6.42731 23.2766 6.4181 23.2656 6.40825C23.2523 6.39634 23.2393 6.38406 23.2254 6.37289C23.212 6.36217 23.1981 6.3527 23.1843 6.34278C23.1716 6.33358 23.1593 6.32405 23.1462 6.31548C23.1321 6.30626 23.1174 6.29819 23.1029 6.28977C23.0892 6.28175 23.0757 6.27335 23.0615 6.26596C23.0474 6.2586 23.0328 6.2524 23.0184 6.24578C23.0031 6.23872 22.9881 6.23128 22.9723 6.22501C22.9579 6.21922 22.943 6.2146 22.9284 6.20949C22.9123 6.20389 22.8964 6.19787 22.8799 6.19307C22.8629 6.18812 22.8456 6.18454 22.8283 6.18051C22.8138 6.17711 22.7996 6.17307 22.7848 6.17028C22.7529 6.16429 22.7208 6.15978 22.6884 6.15692C22.6879 6.15685 22.6874 6.15677 22.687 6.15673L17.0517 5.66371C16.5015 5.61557 16.0165 6.02258 15.9683 6.57275C15.9202 7.12292 16.3272 7.60797 16.8774 7.6561L20.1077 7.93872L11.2324 15.3859C10.8094 15.7409 10.7542 16.3716 11.1092 16.7947C11.4642 17.2178 12.0949 17.273 12.518 16.918L21.3932 9.47078L21.1106 12.7011C21.0625 13.2513 21.4695 13.7363 22.0196 13.7844C22.5698 13.8326 23.0549 13.4256 23.103 12.8754L23.596 7.24008C23.5961 7.23955 23.596 7.23909 23.5961 7.23862C23.5988 7.20619 23.5999 7.17371 23.5996 7.14127Z" fill="#E9A043"/>
</g>
</g>
<defs>
<clipPath id="clip0">
<rect width="24" height="24" fill="white"/>
</clipPath>
<clipPath id="clip1">
<rect width="24" height="24" fill="white" transform="translate(-4.66101 10.4463) rotate(-40)"/>
</clipPath>
</defs>
</svg>
