<svg width="32" height="32" viewBox="0 0 32 32" fill="none" xmlns="http://www.w3.org/2000/svg">
<path d="M4.55231 13.3333H20C20.7364 13.3333 21.3333 12.7364 21.3333 12C21.3333 11.2636 20.7364 10.6667 20 10.6667H4.55231L7.6095 7.6095C8.13018 7.08881 8.13018 6.24456 7.6095 5.72387C7.08881 5.20319 6.24456 5.20319 5.72387 5.72387L0.390496 11.0572C0.359434 11.0882 0.330059 11.1209 0.302184 11.1549C0.289559 11.1703 0.278559 11.1866 0.266746 11.2024C0.252496 11.2214 0.237809 11.2399 0.224559 11.2597C0.211871 11.2787 0.200871 11.2984 0.189246 11.3178C0.178559 11.3357 0.167309 11.3532 0.157434 11.3716C0.146809 11.3914 0.137809 11.4119 0.128309 11.4321C0.119246 11.4513 0.109684 11.4702 0.101496 11.4899C0.0933713 11.5096 0.0867463 11.5297 0.0796213 11.5497C0.0720588 11.5707 0.0639963 11.5915 0.0574963 11.613C0.0514338 11.633 0.0469963 11.6533 0.0419338 11.6736C0.0363713 11.6955 0.0302463 11.7172 0.0258088 11.7396C0.0211838 11.763 0.0184338 11.7866 0.0150588 11.8102C0.0123088 11.8296 0.00855884 11.8488 0.00662134 11.8685C-0.00200366 11.956 -0.00200366 12.0442 0.00662134 12.1317C0.00855884 12.1514 0.0122463 12.1705 0.0150588 12.19C0.0184338 12.2136 0.0211838 12.2372 0.0258713 12.2606C0.0303088 12.283 0.0364338 12.3046 0.0419963 12.3266C0.0470588 12.3468 0.0514963 12.3671 0.0575588 12.3871C0.0640588 12.4086 0.0721213 12.4294 0.0796838 12.4504C0.0868713 12.4704 0.0934338 12.4906 0.101559 12.5102C0.109684 12.5299 0.119309 12.5487 0.128371 12.5679C0.137934 12.5882 0.146934 12.6086 0.157559 12.6285C0.167434 12.6469 0.178621 12.6643 0.189309 12.6822C0.200934 12.7017 0.211934 12.7214 0.224621 12.7404C0.237809 12.7601 0.252496 12.7786 0.266684 12.7976C0.278559 12.8135 0.289559 12.8297 0.302246 12.8452C0.329934 12.8789 0.359121 12.9114 0.389934 12.9422C0.390184 12.9424 0.390309 12.9427 0.390559 12.9429L5.72387 18.2762C6.24456 18.7969 7.08881 18.7969 7.6095 18.2762C8.13018 17.7555 8.13018 16.9112 7.6095 16.3906L4.55231 13.3333Z" fill="#E9A043"/>
<path d="M31.6977 20.8451C31.7105 20.8296 31.7215 20.8133 31.7334 20.7974C31.7475 20.7785 31.7622 20.76 31.7754 20.7403C31.7881 20.7213 31.7991 20.7016 31.8107 20.6821C31.8214 20.6643 31.8325 20.6468 31.8424 20.6285C31.853 20.6086 31.862 20.5881 31.8716 20.5678C31.8807 20.5487 31.8902 20.5299 31.8984 20.5103C31.9065 20.4906 31.9131 20.4704 31.9202 20.4504C31.9278 20.4294 31.9359 20.4086 31.9424 20.3871C31.9484 20.3671 31.9529 20.3468 31.9579 20.3266C31.9635 20.3046 31.9696 20.2829 31.974 20.2606C31.9787 20.2372 31.9814 20.2136 31.9849 20.19C31.9876 20.1706 31.9914 20.1514 31.9933 20.1317C32.0019 20.0442 32.0019 19.956 31.9933 19.8685C31.9914 19.8488 31.9877 19.8297 31.9849 19.8102C31.9815 19.7866 31.9787 19.7629 31.974 19.7396C31.9696 19.7172 31.9635 19.6956 31.9579 19.6736C31.9529 19.6534 31.9484 19.6331 31.9424 19.6131C31.9359 19.5916 31.9278 19.5708 31.9202 19.5498C31.913 19.5298 31.9065 19.5096 31.8984 19.4899C31.8902 19.4703 31.8807 19.4515 31.8716 19.4324C31.862 19.4121 31.853 19.3916 31.8424 19.3717C31.8325 19.3534 31.8214 19.3359 31.8107 19.3181C31.7991 19.2986 31.788 19.2789 31.7754 19.2599C31.7622 19.2402 31.7475 19.2217 31.7334 19.2028C31.7215 19.1869 31.7104 19.1706 31.6977 19.1551C31.6703 19.1216 31.6413 19.0894 31.6107 19.0588C31.6103 19.0583 31.6099 19.0578 31.6094 19.0574L26.2761 13.7241C25.7554 13.2034 24.9112 13.2034 24.3905 13.7241C23.8698 14.2448 23.8698 15.089 24.3905 15.6097L27.4477 18.6669H12C11.2636 18.6669 10.6667 19.2638 10.6667 20.0002C10.6667 20.7366 11.2636 21.3335 12 21.3335H27.4477L24.3905 24.3907C23.8698 24.9114 23.8698 25.7556 24.3905 26.2763C24.9112 26.797 25.7554 26.797 26.2761 26.2763L31.6094 20.943C31.6099 20.9425 31.6103 20.942 31.6107 20.9416C31.6413 20.9108 31.6703 20.8786 31.6977 20.8451Z" fill="#E9A043"/>
</svg>
