<svg width="24" height="24" viewBox="0 0 24 24" fill="none" xmlns="http://www.w3.org/2000/svg">
<path d="M11.7391 12.7826C12.1713 12.7826 12.5217 12.4322 12.5217 12C12.5217 11.5678 12.1713 11.2174 11.7391 11.2174C11.3069 11.2174 10.9565 11.5678 10.9565 12C10.9565 12.4322 11.3069 12.7826 11.7391 12.7826Z" fill="#E9A043"/>
<path d="M21.6522 1.82611H5.47828C4.18369 1.82611 3.13045 2.87935 3.13045 4.17394V4.95656H0.782625C0.350391 4.95652 0 5.30691 0 5.73914V10.4348C0 10.867 0.350391 11.2174 0.782625 11.2174H3.13045V12.7826H0.782625C0.350391 12.7826 0 13.133 0 13.5652V18.2609C0 18.6931 0.350391 19.0435 0.782625 19.0435H3.13045V19.8261C3.13045 21.1207 4.18369 22.1739 5.47828 22.1739H21.6522C22.9468 22.1739 24 21.1207 24 19.8261V4.17394C24 2.87935 22.9468 1.82611 21.6522 1.82611ZM3.13045 17.4783H1.5652V14.3478H3.13041V17.4783H3.13045ZM3.13045 9.65217H1.5652V6.52172H3.13041V9.65217H3.13045ZM22.4348 19.8261C22.4348 20.2576 22.0837 20.6087 21.6522 20.6087H5.47828C5.04675 20.6087 4.69566 20.2576 4.69566 19.8261C4.69566 19.2333 4.69566 4.7617 4.69566 4.17394C4.69566 3.74241 5.04675 3.39131 5.47828 3.39131H21.6522C22.0837 3.39131 22.4348 3.74241 22.4348 4.17394V19.8261Z" fill="#E9A043"/>
<path d="M15.0022 14.1563C15.4125 13.5376 15.6522 12.7964 15.6522 12C15.6522 11.2036 15.4125 10.4625 15.0022 9.84368L16.9882 7.85772C17.2938 7.55214 17.2938 7.05658 16.9882 6.751C16.6826 6.44538 16.187 6.44538 15.8814 6.751L13.8955 8.73696C13.2767 8.32666 12.5356 8.08699 11.7392 8.08699C10.9428 8.08699 10.2016 8.32666 9.58286 8.73696L7.59691 6.751C7.29133 6.44542 6.79577 6.44542 6.49014 6.751C6.18452 7.05658 6.18452 7.55214 6.49014 7.85777L8.4761 9.84372C8.06585 10.4625 7.82613 11.2036 7.82613 12C7.82613 12.7964 8.06585 13.5376 8.4761 14.1564L6.49014 16.1423C6.18452 16.4479 6.18452 16.9435 6.49014 17.2491C6.64296 17.402 6.84321 17.4784 7.0435 17.4784C7.24375 17.4784 7.4441 17.4019 7.59686 17.2491L9.58282 15.2631C10.2016 15.6734 10.9428 15.9131 11.7392 15.9131C12.5355 15.9131 13.2767 15.6734 13.8955 15.2631L15.8814 17.249C16.0342 17.4019 16.2345 17.4783 16.4348 17.4783C16.6351 17.4783 16.8354 17.4019 16.9882 17.249C17.2938 16.9435 17.2938 16.4479 16.9882 16.1423L15.0022 14.1563ZM11.7392 14.3479C10.4446 14.3479 9.39133 13.2946 9.39133 12C9.39133 10.7054 10.4446 9.65219 11.7392 9.65219C13.0338 9.65219 14.087 10.7054 14.087 12C14.087 13.2946 13.0338 14.3479 11.7392 14.3479Z" fill="#E9A043"/>
<path d="M20.0869 8.08697C19.6548 8.08697 19.3043 8.43736 19.3043 8.86959V15.1305C19.3043 15.5626 19.6547 15.9131 20.0869 15.9131C20.5192 15.9131 20.8696 15.5627 20.8696 15.1305V8.86955C20.8695 8.43736 20.5191 8.08697 20.0869 8.08697Z" fill="#E9A043"/>
</svg>
